<?xml version="1.0" encoding="UTF-8" standalone="no"?>
<!DOCTYPE svg PUBLIC "-//W3C//DTD SVG 1.1//EN" "http://www.w3.org/Graphics/SVG/1.1/DTD/svg11.dtd">
<svg width="100%" height="100%" viewBox="0 0 164 162" version="1.1" xmlns="http://www.w3.org/2000/svg" xmlns:xlink="http://www.w3.org/1999/xlink" xml:space="preserve" xmlns:serif="http://www.serif.com/" style="fill-rule:evenodd;clip-rule:evenodd;stroke-linecap:round;stroke-linejoin:round;stroke-miterlimit:1.5;">
    <g transform="matrix(1,0,0,1,-210.153,-545.601)">
        <path d="M373.303,586.176L373.303,666.877C373.303,689.147 355.223,707.227 332.953,707.227L250.728,707.227C228.458,707.227 210.378,689.147 210.378,666.877L210.378,586.176C210.378,563.906 228.458,545.826 250.728,545.826L332.953,545.826C355.223,545.826 373.303,563.906 373.303,586.176Z" style="fill:rgb(114,0,255);stroke:black;stroke-width:0.45px;"/>
        <g transform="matrix(3.94821,0,0,3.94821,-847.923,-1707.29)">
            <g transform="matrix(36,0,0,36,279.21,604.677)">
                <path d="M0.044,-0.524C0.044,-0.555 0.054,-0.586 0.074,-0.618C0.094,-0.65 0.123,-0.676 0.161,-0.697C0.199,-0.718 0.243,-0.728 0.294,-0.728C0.341,-0.728 0.383,-0.719 0.419,-0.702C0.455,-0.684 0.483,-0.661 0.503,-0.631C0.522,-0.601 0.532,-0.568 0.532,-0.533C0.532,-0.506 0.527,-0.481 0.515,-0.46C0.504,-0.44 0.491,-0.422 0.475,-0.406C0.46,-0.391 0.432,-0.366 0.392,-0.33C0.381,-0.32 0.372,-0.311 0.365,-0.303C0.359,-0.296 0.354,-0.289 0.351,-0.282C0.347,-0.276 0.345,-0.27 0.343,-0.263C0.341,-0.257 0.339,-0.246 0.335,-0.23C0.329,-0.196 0.309,-0.179 0.277,-0.179C0.26,-0.179 0.246,-0.185 0.234,-0.196C0.223,-0.207 0.217,-0.223 0.217,-0.245C0.217,-0.272 0.221,-0.296 0.229,-0.316C0.238,-0.336 0.249,-0.354 0.263,-0.369C0.277,-0.384 0.296,-0.402 0.32,-0.423C0.341,-0.441 0.356,-0.455 0.365,-0.464C0.374,-0.473 0.382,-0.484 0.388,-0.495C0.395,-0.507 0.398,-0.519 0.398,-0.532C0.398,-0.558 0.388,-0.58 0.369,-0.598C0.35,-0.616 0.325,-0.625 0.294,-0.625C0.258,-0.625 0.232,-0.616 0.215,-0.598C0.198,-0.58 0.184,-0.553 0.172,-0.518C0.161,-0.481 0.14,-0.463 0.109,-0.463C0.091,-0.463 0.075,-0.469 0.063,-0.482C0.05,-0.495 0.044,-0.509 0.044,-0.524ZM0.282,0.011C0.262,0.011 0.245,0.005 0.23,-0.008C0.215,-0.021 0.208,-0.039 0.208,-0.062C0.208,-0.083 0.215,-0.1 0.229,-0.114C0.244,-0.128 0.261,-0.135 0.282,-0.135C0.303,-0.135 0.32,-0.128 0.334,-0.114C0.348,-0.1 0.355,-0.083 0.355,-0.062C0.355,-0.039 0.348,-0.021 0.333,-0.008C0.318,0.005 0.301,0.011 0.282,0.011Z" style="fill:rgb(255,54,233);fill-rule:nonzero;"/>
            </g>
        </g>
    </g>
</svg>
